<svg width="17" height="17" viewBox="0 0 17 17" fill="none" xmlns="http://www.w3.org/2000/svg">
<g clip-path="url(#clip0_420_13218)">
<path d="M10.9479 1.42529C11.0699 1.42529 11.1846 1.45863 11.2826 1.51529L11.3046 1.52863C11.4913 1.64663 11.6146 1.85529 11.6146 2.09196V2.75863H12.2812C12.7914 2.7586 13.2823 2.95351 13.6534 3.30348C14.0246 3.65345 14.248 4.13203 14.2779 4.64129L14.2812 4.75863V12.7586C14.2813 13.2688 14.0864 13.7596 13.7364 14.1308C13.3864 14.502 12.9078 14.7254 12.3986 14.7553L12.2812 14.7586H4.28125C3.77111 14.7587 3.28024 14.5637 2.90908 14.2138C2.53791 13.8638 2.31451 13.3852 2.28458 12.876L2.28125 12.7586V4.75863C2.28122 4.24849 2.47613 3.75762 2.82611 3.38645C3.17608 3.01529 3.65465 2.79189 4.16392 2.76196L4.28125 2.75863H4.94792V2.09196C4.94791 1.97311 4.97968 1.85642 5.03993 1.75398C5.10018 1.65153 5.18671 1.56705 5.29058 1.50929L5.35258 1.47863L5.39658 1.46196L5.46325 1.44263L5.53458 1.42996L5.61458 1.42529C5.65147 1.42529 5.68725 1.42818 5.72192 1.43396L5.80325 1.45329L5.82992 1.46129L5.86992 1.47663C6.08858 1.56663 6.24858 1.76996 6.27658 2.01396L6.28125 2.09196V2.75863H10.2812V2.09196C10.2812 1.91515 10.3515 1.74558 10.4765 1.62056C10.6015 1.49553 10.7711 1.42529 10.9479 1.42529ZM12.9479 6.09196H3.61458V12.5086C3.61458 12.9786 3.87192 13.366 4.20325 13.4193L4.28125 13.4253H12.2812C12.6233 13.4253 12.9053 13.072 12.9433 12.6153L12.9479 12.5086V6.09196Z" fill="white"/>
<path d="M6.29122 8.75857C6.29122 8.93538 6.22099 9.10495 6.09596 9.22997C5.97094 9.355 5.80137 9.42523 5.62456 9.42523C5.53451 9.42948 5.44454 9.41544 5.36008 9.38396C5.27561 9.35249 5.1984 9.30422 5.13309 9.24208C5.06779 9.17994 5.01575 9.10522 4.98012 9.02242C4.94449 8.93961 4.92601 8.85045 4.92578 8.76031C4.92556 8.67017 4.9436 8.58091 4.97881 8.49794C5.01403 8.41496 5.06569 8.33997 5.13068 8.27751C5.19567 8.21504 5.27264 8.16639 5.35695 8.13449C5.44126 8.10259 5.53116 8.0881 5.62122 8.0919C5.99256 8.0919 6.29122 8.39057 6.29122 8.75857Z" fill="white"/>
<path d="M8.95919 8.75857C8.95919 8.93538 8.88895 9.10495 8.76393 9.22997C8.63891 9.355 8.46934 9.42523 8.29253 9.42523C8.20248 9.42948 8.11251 9.41544 8.02805 9.38396C7.94358 9.35249 7.86636 9.30422 7.80106 9.24208C7.73576 9.17994 7.68372 9.10522 7.64809 9.02242C7.61246 8.93961 7.59398 8.85045 7.59375 8.76031C7.59353 8.67017 7.61157 8.58091 7.64678 8.49794C7.682 8.41496 7.73366 8.33997 7.79865 8.27751C7.86364 8.21504 7.94061 8.16639 8.02492 8.13449C8.10923 8.10259 8.19913 8.0881 8.28919 8.0919C8.66053 8.0919 8.95919 8.39057 8.95919 8.75857Z" fill="white"/>
<path d="M11.6272 8.75857C11.6272 8.93538 11.5569 9.10495 11.4319 9.22997C11.3069 9.355 11.1373 9.42523 10.9605 9.42523C10.8705 9.42948 10.7805 9.41544 10.696 9.38396C10.6115 9.35249 10.5343 9.30422 10.469 9.24208C10.4037 9.17994 10.3517 9.10522 10.3161 9.02242C10.2804 8.93961 10.2619 8.85045 10.2617 8.76031C10.2615 8.67017 10.2795 8.58091 10.3148 8.49794C10.35 8.41496 10.4016 8.33997 10.4666 8.27751C10.5316 8.21504 10.6086 8.16639 10.6929 8.13449C10.7772 8.10259 10.8671 8.0881 10.9572 8.0919C11.3285 8.0919 11.6272 8.39057 11.6272 8.75857Z" fill="white"/>
<path d="M8.29643 10.0919C8.47324 10.0919 8.64281 10.1621 8.76784 10.2872C8.89286 10.4122 8.9631 10.5818 8.9631 10.7586C8.9631 10.9354 8.89286 11.1049 8.76784 11.23C8.64281 11.355 8.47324 11.4252 8.29643 11.4252C8.20639 11.4295 8.11642 11.4154 8.03195 11.384C7.94748 11.3525 7.87027 11.3042 7.80497 11.2421C7.73967 11.1799 7.68763 11.1052 7.652 11.0224C7.61637 10.9396 7.59788 10.8505 7.59766 10.7603C7.59743 10.6702 7.61547 10.5809 7.65069 10.4979C7.6859 10.415 7.73757 10.34 7.80256 10.2775C7.86755 10.215 7.94452 10.1664 8.02883 10.1345C8.11314 10.1026 8.20304 10.0881 8.2931 10.0919H8.29643Z" fill="white"/>
<path d="M6.29122 10.7586C6.29122 10.9354 6.22099 11.1049 6.09596 11.23C5.97094 11.355 5.80137 11.4252 5.62456 11.4252C5.53451 11.4295 5.44454 11.4154 5.36008 11.384C5.27561 11.3525 5.1984 11.3042 5.13309 11.2421C5.06779 11.1799 5.01575 11.1052 4.98012 11.0224C4.94449 10.9396 4.92601 10.8505 4.92578 10.7603C4.92556 10.6702 4.9436 10.5809 4.97881 10.4979C5.01403 10.415 5.06569 10.34 5.13068 10.2775C5.19567 10.215 5.27264 10.1664 5.35695 10.1345C5.44126 10.1026 5.53116 10.0881 5.62122 10.0919C5.99256 10.0919 6.29122 10.3906 6.29122 10.7586Z" fill="white"/>
</g>
<defs>
<clipPath id="clip0_420_13218">
<rect width="16" height="16" fill="white" transform="translate(0.28125 0.0917969)"/>
</clipPath>
</defs>
</svg>
