<svg width="20" height="20" viewBox="0 0 20 20" fill="none" xmlns="http://www.w3.org/2000/svg">
<g clip-path="url(#clip0_1_5452)">
<path d="M19.7627 9.88136C19.7627 4.42403 15.3387 0 9.88136 0C4.42403 0 0 4.42403 0 9.88136C0 14.8133 3.61345 18.9014 8.33739 19.6427V12.7377H5.82846V9.88136H8.33739V7.70437C8.33739 5.22786 9.81265 3.8599 12.0697 3.8599C13.1505 3.8599 14.2816 4.0529 14.2816 4.0529V6.48464H13.0357C11.8082 6.48464 11.4253 7.24639 11.4253 8.0286V9.88136H14.1659L13.7278 12.7377H11.4253V19.6427C16.1493 18.9014 19.7627 14.8133 19.7627 9.88136Z" fill="white"/>
</g>
<defs>
<clipPath id="clip0_1_5452">
<rect width="19.7627" height="19.7627" fill="white"/>
</clipPath>
</defs>
</svg>
