<svg width="21" height="21" viewBox="0 0 21 21" fill="none" xmlns="http://www.w3.org/2000/svg">
<g clip-path="url(#clip0_492_1549)">
<path d="M18.7568 0.974609H1.91608C1.10936 0.974609 0.457031 1.61149 0.457031 2.39891V19.3092C0.457031 20.0966 1.10936 20.7373 1.91608 20.7373H18.7568C19.5636 20.7373 20.2197 20.0966 20.2197 19.313V2.39891C20.2197 1.61149 19.5636 0.974609 18.7568 0.974609ZM6.32023 17.8154H3.3867V8.38177H6.32023V17.8154ZM4.85346 7.09642C3.91165 7.09642 3.15124 6.33602 3.15124 5.39806C3.15124 4.4601 3.91165 3.6997 4.85346 3.6997C5.79142 3.6997 6.55182 4.4601 6.55182 5.39806C6.55182 6.33216 5.79142 7.09642 4.85346 7.09642ZM17.2978 17.8154H14.3681V13.2298C14.3681 12.1375 14.3488 10.7286 12.8435 10.7286C11.3188 10.7286 11.0872 11.9213 11.0872 13.1526V17.8154H8.1614V8.38177H10.9714V9.67097H11.01C11.3999 8.92987 12.3571 8.14631 13.7814 8.14631C16.7497 8.14631 17.2978 10.0994 17.2978 12.6392V17.8154Z" fill="white"/>
</g>
<defs>
<clipPath id="clip0_492_1549">
<rect width="19.7627" height="19.7627" fill="white" transform="translate(0.457031 0.974609)"/>
</clipPath>
</defs>
</svg>
