<svg width="17" height="17" viewBox="0 0 17 17" fill="none" xmlns="http://www.w3.org/2000/svg">
<g clip-path="url(#clip0_420_13212)">
<path d="M6.28125 7.42529C6.28125 7.95573 6.49196 8.46443 6.86704 8.83951C7.24211 9.21458 7.75082 9.42529 8.28125 9.42529C8.81168 9.42529 9.32039 9.21458 9.69546 8.83951C10.0705 8.46443 10.2813 7.95573 10.2813 7.42529C10.2813 6.89486 10.0705 6.38615 9.69546 6.01108C9.32039 5.63601 8.81168 5.42529 8.28125 5.42529C7.75082 5.42529 7.24211 5.63601 6.86704 6.01108C6.49196 6.38615 6.28125 6.89486 6.28125 7.42529Z" stroke="white" stroke-width="1.5" stroke-linecap="round" stroke-linejoin="round"/>
<path d="M12.05 11.1963L9.22131 14.0249C8.97131 14.2747 8.63237 14.415 8.27898 14.415C7.92559 14.415 7.58666 14.2747 7.33665 14.0249L4.50732 11.1963C3.76146 10.4504 3.25354 9.50007 3.04777 8.46551C2.84201 7.43095 2.94764 6.35861 3.35132 5.38409C3.75499 4.40957 4.43858 3.57663 5.31564 2.99061C6.19269 2.40458 7.22383 2.0918 8.27865 2.0918C9.33347 2.0918 10.3646 2.40458 11.2417 2.99061C12.1187 3.57663 12.8023 4.40957 13.206 5.38409C13.6097 6.35861 13.7153 7.43095 13.5095 8.46551C13.3038 9.50007 12.7958 10.4504 12.05 11.1963Z" stroke="white" stroke-width="1.5" stroke-linecap="round" stroke-linejoin="round"/>
</g>
<defs>
<clipPath id="clip0_420_13212">
<rect width="16" height="16" fill="white" transform="translate(0.28125 0.0917969)"/>
</clipPath>
</defs>
</svg>
