<svg width="16" height="16" viewBox="0 0 16 16" fill="none" xmlns="http://www.w3.org/2000/svg">
<path fill-rule="evenodd" clip-rule="evenodd" d="M9.19526 3.19017C9.67391 2.71153 10.3231 2.44263 11 2.44263C11.6769 2.44263 12.3261 2.71153 12.8047 3.19017C13.2834 3.66882 13.5523 4.318 13.5523 4.99491C13.5523 5.67182 13.2834 6.321 12.8047 6.79964L5.80474 13.7996C5.67971 13.9247 5.51014 13.9949 5.33333 13.9949H2.66667C2.29848 13.9949 2 13.6964 2 13.3282V10.6616C2 10.4848 2.07024 10.3152 2.19526 10.1902L9.19526 3.19017ZM11 3.77596C10.6767 3.77596 10.3667 3.90439 10.1381 4.13298L3.33333 10.9377V12.6616H5.05719L11.8619 5.85684C12.0905 5.62824 12.219 5.31819 12.219 4.99491C12.219 4.67162 12.0905 4.36158 11.8619 4.13298C11.6333 3.90439 11.3233 3.77596 11 3.77596Z" fill="#858585"/>
<path fill-rule="evenodd" clip-rule="evenodd" d="M8.5286 3.85684C8.78895 3.59649 9.21106 3.59649 9.4714 3.85684L12.1381 6.52351C12.3984 6.78386 12.3984 7.20597 12.1381 7.46632C11.8777 7.72667 11.4556 7.72667 11.1953 7.46632L8.5286 4.79965C8.26825 4.5393 8.26825 4.11719 8.5286 3.85684Z" fill="#858585"/>
</svg>
