<svg width="20" height="20" viewBox="0 0 20 20" fill="none" xmlns="http://www.w3.org/2000/svg">
<path d="M13.3307 17.5V15.8333C13.3307 14.9493 12.9795 14.1014 12.3544 13.4763C11.7293 12.8512 10.8815 12.5 9.9974 12.5H4.9974C4.11334 12.5 3.26549 12.8512 2.64037 13.4763C2.01525 14.1014 1.66406 14.9493 1.66406 15.8333V17.5" stroke="white" stroke-width="2" stroke-linecap="round" stroke-linejoin="round"/>
<path d="M7.4974 9.16667C9.33834 9.16667 10.8307 7.67428 10.8307 5.83333C10.8307 3.99238 9.33834 2.5 7.4974 2.5C5.65645 2.5 4.16406 3.99238 4.16406 5.83333C4.16406 7.67428 5.65645 9.16667 7.4974 9.16667Z" stroke="white" stroke-width="2" stroke-linecap="round" stroke-linejoin="round"/>
<path d="M18.3359 17.501V15.8344C18.3354 15.0958 18.0896 14.3784 17.6371 13.7946C17.1846 13.2109 16.551 12.794 15.8359 12.6094" stroke="white" stroke-width="2" stroke-linecap="round" stroke-linejoin="round"/>
<path d="M13.3359 2.60938C14.0529 2.79296 14.6885 3.20996 15.1423 3.79463C15.5961 4.37931 15.8425 5.0984 15.8425 5.83854C15.8425 6.57868 15.5961 7.29778 15.1423 7.88245C14.6885 8.46712 14.0529 8.88412 13.3359 9.06771" stroke="white" stroke-width="2" stroke-linecap="round" stroke-linejoin="round"/>
</svg>
