<svg width="151" height="42" viewBox="0 0 151 42" fill="none" xmlns="http://www.w3.org/2000/svg">
<path fill-rule="evenodd" clip-rule="evenodd" d="M20.6006 31.6782C14.8168 31.6782 10.1284 26.9008 10.1284 21.0031C10.1284 15.1054 14.8168 10.3275 20.6006 10.3275V0C9.22287 0 0 9.40164 0 21.0003C0 32.5989 9.22287 42 20.6006 42C31.9783 42 41.2017 32.5984 41.2017 21.0003H31.0728C31.0728 26.8963 26.385 31.6753 20.6006 31.6753V31.6782Z" fill="#2A5271"/>
<path d="M36.7851 4.49805L31.7022 16.5033L30.2456 11.1641L25.0078 9.67916L36.7851 4.49805Z" fill="#2A5271"/>
<path d="M45.7812 14.3412C45.7833 13.1869 46.0001 12.0433 46.4203 10.9698C46.8477 9.85986 47.4772 8.84049 48.2761 7.96425C49.111 7.04861 50.1225 6.31495 51.2486 5.80839C52.4177 5.26838 53.7376 4.99892 55.2082 5C56.9751 5 58.5159 5.37515 59.8305 6.12544C61.1452 6.87573 62.1239 7.86798 62.7665 9.10218L58.8967 11.9095C58.6697 11.2912 58.3464 10.8129 57.922 10.479C57.5153 10.1543 57.0473 9.91672 56.5466 9.7808C56.0758 9.65204 55.5905 9.58561 55.1028 9.58319C54.3791 9.58319 53.7516 9.72887 53.2201 10.0202C52.7044 10.296 52.2599 10.6898 51.9221 11.1701C51.5804 11.6504 51.3255 12.1878 51.169 12.7575C51.0057 13.3256 50.9225 13.9142 50.9221 14.5057C50.9194 15.1432 51.0149 15.7773 51.2051 16.3852C51.3857 16.9646 51.6679 17.5065 52.0383 17.9851C52.3952 18.4489 52.8515 18.8251 53.3729 19.0856C53.9276 19.355 54.5368 19.4905 55.1523 19.4814C55.6368 19.4797 56.1183 19.4032 56.5799 19.2545C57.0658 19.1049 57.5169 18.8582 57.9064 18.5291C58.3029 18.1953 58.6057 17.7414 58.8166 17.1768L62.9456 19.6915C62.5816 20.6112 61.975 21.3973 61.1258 22.0499C60.2569 22.7121 59.2813 23.2182 58.2421 23.5461C57.2111 23.8828 56.1348 24.0567 55.0512 24.0619C53.68 24.0619 52.4304 23.7812 51.2981 23.229C50.1846 22.6881 49.1871 21.9318 48.3622 21.0031C47.548 20.0847 46.9031 19.0268 46.4579 17.8793C46.0138 16.7534 45.7842 15.553 45.7812 14.3412ZM68.7115 5.13193H74.3758L80.2439 23.9267H75.0998L74.1493 20.2453H68.9402L67.9859 23.9267H62.8176L68.7115 5.13193ZM73.2575 16.8071L71.5426 10.1836L69.8277 16.8071H73.2575ZM81.7748 23.9267V5.13193H90.2389C91.1006 5.12361 91.9528 5.31393 92.7306 5.6884C93.4806 6.04985 94.1515 6.55871 94.7042 7.18519C95.253 7.80347 95.6884 8.51548 95.9898 9.28785C96.2875 10.0377 96.4412 10.8379 96.4427 11.6457C96.4459 12.3544 96.341 13.0593 96.1318 13.7359C95.9298 14.394 95.6237 15.015 95.2254 15.5747C94.8266 16.1286 94.3437 16.6156 93.7946 17.0177L97.6934 23.9267H92.1356L88.8882 18.1551H86.8377V23.9267H81.7748ZM86.8377 13.6533H90.0292C90.2501 13.6492 90.4623 13.5659 90.6279 13.4183C90.8403 13.2301 91.0061 12.9943 91.112 12.7299C91.2411 12.4291 91.3062 12.0664 91.3062 11.644C91.3062 11.1989 91.233 10.8362 91.0835 10.5436C90.9583 10.2781 90.7727 10.0463 90.5418 9.86713C90.3234 9.71077 90.1115 9.63205 89.9027 9.63205H86.8409L86.8377 13.6533ZM112.443 19.4249V23.9267H99.3023V5.13193H112.207V9.63368H104.366V12.2809H111.062V16.4612H104.365V19.4255L112.443 19.4249ZM127.944 19.4249V23.9267H114.803V5.13193H127.709V9.63368H119.867V12.2809H126.564V16.4612H119.867V19.4255L127.944 19.4249ZM130.306 23.9267V5.13193H138.77C139.633 5.12354 140.486 5.31386 141.265 5.6884C142.014 6.05094 142.685 6.55965 143.239 7.18519C143.788 7.80257 144.222 8.51487 144.52 9.28785C144.819 10.0374 144.974 10.8376 144.977 11.6457C144.978 12.3543 144.873 13.0589 144.666 13.7359C144.461 14.3936 144.154 15.0143 143.756 15.5747C143.359 16.1294 142.877 16.6165 142.328 17.0177L146.223 23.9267H140.666L137.42 18.1551H135.369V23.9267H130.306ZM135.369 13.6533H138.564C138.77 13.6533 138.968 13.5752 139.162 13.4183C139.357 13.2614 139.51 13.0312 139.64 12.7299C139.769 12.4285 139.834 12.0664 139.834 11.644C139.834 11.1989 139.761 10.8362 139.615 10.5436C139.49 10.2768 139.303 10.0447 139.069 9.86713C138.854 9.71077 138.639 9.63205 138.435 9.63205H135.368L135.369 13.6533Z" fill="#2A5271"/>
<path d="M45.7812 34.7245C45.7819 34.0375 45.9057 33.3563 46.1466 32.7137C46.3887 32.054 46.7485 31.4445 47.2082 30.9156C47.6765 30.3665 48.2561 29.9252 48.9079 29.6216C49.5785 29.2997 50.3424 29.1387 51.1996 29.1387C52.2106 29.1387 53.0855 29.3654 53.8244 29.8188C54.5632 30.2686 55.1117 30.8604 55.4739 31.5844L53.8315 32.7359C53.6448 32.3156 53.4048 31.983 53.1034 31.7341C52.8236 31.4958 52.4975 31.3191 52.1461 31.2152C51.8191 31.1162 51.4796 31.0658 51.1382 31.0654C50.6005 31.0654 50.1343 31.1749 49.7363 31.3943C49.3476 31.6111 49.0081 31.9075 48.7396 32.2645C48.47 32.6245 48.2681 33.0315 48.144 33.4651C48.0171 33.8946 47.952 34.3403 47.9506 34.7886C47.9478 35.2749 48.0265 35.7582 48.1834 36.2179C48.3288 36.6587 48.5511 37.0697 48.8399 37.4315C49.1178 37.7811 49.4668 38.0665 49.8632 38.2685C50.2689 38.4753 50.718 38.5807 51.1725 38.5758C51.5242 38.5739 51.8733 38.5151 52.2065 38.4018C52.5632 38.2816 52.8941 38.0943 53.1817 37.8497C53.4896 37.585 53.7286 37.2481 53.8776 36.8686L55.6274 37.8957C55.407 38.4565 55.0403 38.9467 54.5662 39.3142C54.0731 39.7061 53.5144 40.0057 52.9167 40.1988C52.3326 40.3953 51.7211 40.4964 51.1055 40.4983C50.3602 40.5069 49.6236 40.3364 48.9565 40.001C48.3155 39.6774 47.7444 39.2286 47.2763 38.6806C46.8071 38.1269 46.4349 37.4965 46.1757 36.8164C45.9173 36.1501 45.7836 35.4412 45.7812 34.7256V34.7245ZM61.6208 40.4999C60.8141 40.4999 60.0837 40.3427 59.4295 40.0284C58.7856 39.7201 58.211 39.2822 57.741 38.7415C57.2724 38.2017 56.9034 37.5815 56.6512 36.9104C56.3951 36.2436 56.2638 35.5347 56.2639 34.8196C56.2615 34.0867 56.4005 33.3604 56.6732 32.6812C56.9411 32.0145 57.3233 31.4008 57.8024 30.8681C58.2818 30.3368 58.8609 29.9068 59.5062 29.603C60.1839 29.2882 60.9225 29.1294 61.6684 29.1382C62.4206 29.1297 63.1644 29.2974 63.8414 29.6283C64.4845 29.9426 65.0559 30.3881 65.5196 30.9368C65.9828 31.4803 66.3504 32.0998 66.6063 32.7685C66.8628 33.4324 66.9942 34.1389 66.9937 34.8516C66.9947 35.5781 66.8572 36.2979 66.5884 36.9719C66.326 37.6409 65.9457 38.2564 65.4659 38.7885C64.9871 39.3174 64.4078 39.7438 63.7626 40.0423C63.0905 40.3503 62.3599 40.5062 61.6219 40.4993L61.6208 40.4999ZM58.4292 34.8196C58.4273 35.2962 58.5013 35.7701 58.6482 36.2231C58.7825 36.6605 58.9951 37.0694 59.2754 37.4294C59.5519 37.794 59.9097 38.0876 60.3197 38.2864C60.7297 38.4853 61.1804 38.5837 61.6352 38.5737C62.1512 38.5737 62.6102 38.4665 63.012 38.252C63.4074 38.0422 63.7515 37.7462 64.0194 37.3855C64.2888 37.0171 64.495 36.6057 64.6293 36.1684C64.7669 35.7322 64.837 35.2773 64.8371 34.8196C64.8395 34.3456 64.7645 33.8746 64.615 33.4253C64.4718 32.9921 64.2569 32.5865 63.9795 32.2257C63.7089 31.8752 63.3649 31.5894 62.9721 31.3887C62.5573 31.1787 62.0986 31.0725 61.6347 31.0788C61.1071 31.0788 60.6446 31.1847 60.2501 31.4005C59.8586 31.6114 59.5172 31.9059 59.2499 32.2634C58.9784 32.6248 58.7721 33.0315 58.6405 33.4651C58.5003 33.9034 58.4288 34.3611 58.4287 34.8216L58.4292 34.8196ZM77.596 40.4229V33.0685L74.7773 38.5422H73.5867L70.7686 33.0685V40.4229H68.6304V29.2172H70.9221L74.1746 35.5921L77.4558 29.2172H79.7291V40.4229H77.596ZM82.0213 40.4229V29.2172H86.6829C87.1646 29.2107 87.6411 29.3184 88.0741 29.5317C88.4954 29.7391 88.8721 30.0285 89.1823 30.3832C89.4939 30.7375 89.7419 31.144 89.915 31.5844C90.0875 32.0153 90.1763 32.4757 90.1764 32.9404C90.1786 33.5666 90.0297 34.1839 89.7425 34.739C89.4672 35.2954 89.0578 35.773 88.5519 36.1281C88.0478 36.4872 87.4497 36.6667 86.7576 36.6667H84.1579V40.4245L82.0213 40.4229ZM84.1579 34.756H86.6358C86.8852 34.7591 87.129 34.6811 87.3311 34.5335C87.5494 34.3697 87.7203 34.15 87.8264 33.8973C87.9554 33.595 88.0189 33.2684 88.0126 32.9394C88.0126 32.5521 87.941 32.2195 87.8049 31.9453C87.6829 31.6937 87.4941 31.4812 87.2595 31.3313C87.0446 31.1961 86.7964 31.1245 86.5432 31.1248H84.1589L84.1579 34.756ZM93.8649 29.2193H96.0307L100.073 40.425H97.8726L96.9578 37.6287H92.924L92.0061 40.425H89.806L93.8649 29.2193ZM96.4574 36.0987L94.948 31.4749L93.4274 36.0987H96.4574ZM107.689 32.1509C107.565 32.0404 107.433 31.9402 107.294 31.8513C107.072 31.711 106.838 31.5901 106.595 31.4899C106.305 31.3681 106.008 31.2647 105.705 31.18C105.388 31.0913 105.06 31.0458 104.73 31.0447C104.153 31.0447 103.716 31.1584 103.421 31.3742C103.127 31.5901 102.98 31.904 102.98 32.3037C102.98 32.6068 103.074 32.848 103.26 33.0236C103.447 33.1991 103.721 33.3561 104.096 33.4806C104.471 33.605 104.931 33.7439 105.491 33.8901C106.138 34.0404 106.767 34.2584 107.369 34.5407C107.9 34.7962 108.308 35.1311 108.592 35.5456C108.876 35.9587 109.019 36.5071 109.019 37.1872C109.019 37.7831 108.911 38.2913 108.693 38.7152C108.486 39.1309 108.177 39.4864 107.796 39.748C107.4 40.016 106.959 40.2085 106.494 40.316C105.989 40.4417 105.47 40.5031 104.949 40.4988C104.397 40.4981 103.847 40.4405 103.307 40.3269C102.766 40.2128 102.238 40.0465 101.729 39.8301C101.237 39.6211 100.77 39.3588 100.334 39.0478L101.277 37.1686C101.43 37.3099 101.597 37.4348 101.775 37.5415C102.053 37.714 102.341 37.8668 102.64 37.9985C103 38.1582 103.373 38.2879 103.755 38.3863C104.155 38.4887 104.565 38.5407 104.978 38.5412C105.555 38.5412 105.996 38.4379 106.294 38.2453C106.592 38.0527 106.742 37.7661 106.742 37.4005C106.742 37.0643 106.624 36.8051 106.387 36.6145C106.15 36.424 105.821 36.2639 105.397 36.1214C104.974 35.9789 104.472 35.825 103.895 35.6566C103.296 35.493 102.715 35.27 102.159 34.991C101.699 34.7426 101.352 34.4318 101.123 34.0517C100.893 33.6716 100.782 33.2074 100.782 32.6373C100.782 31.8766 100.961 31.2337 101.317 30.7143C101.672 30.1948 102.156 29.8044 102.765 29.5338C103.406 29.2628 104.096 29.1271 104.791 29.1351C105.284 29.1328 105.775 29.1906 106.254 29.3071C106.699 29.4186 107.133 29.5728 107.549 29.7677C107.926 29.9416 108.288 30.1469 108.632 30.3817L107.689 32.1509ZM117.177 32.1509C117.055 32.0395 116.923 31.9393 116.783 31.8513C116.561 31.7109 116.329 31.59 116.087 31.4899C115.796 31.3686 115.497 31.2652 115.194 31.18C114.876 31.0913 114.548 31.0458 114.219 31.0447C113.641 31.0447 113.207 31.1584 112.914 31.3742C112.62 31.5901 112.472 31.904 112.472 32.3037C112.472 32.6068 112.562 32.848 112.748 33.0236C112.935 33.1991 113.214 33.3561 113.584 33.4806C113.953 33.605 114.419 33.7439 114.979 33.8901C115.626 34.0405 116.256 34.2585 116.858 34.5407C117.392 34.7963 117.797 35.1325 118.081 35.5456C118.364 35.9587 118.507 36.5071 118.507 37.1872C118.507 37.7831 118.4 38.2913 118.181 38.7152C117.975 39.1318 117.667 39.4876 117.285 39.748C116.889 40.0172 116.448 40.2098 115.983 40.316C115.477 40.4417 114.958 40.5031 114.437 40.4988C113.885 40.4978 113.335 40.4402 112.795 40.3269C112.255 40.2123 111.726 40.0459 111.217 39.8301C110.726 39.6212 110.258 39.3589 109.822 39.0478L110.769 37.1686C110.921 37.3092 111.087 37.4341 111.264 37.5415C111.543 37.7142 111.834 37.8669 112.134 37.9985C112.493 38.1582 112.865 38.2879 113.246 38.3863C113.645 38.4885 114.056 38.5405 114.468 38.5412C115.049 38.5412 115.487 38.4379 115.784 38.2453C115.927 38.1576 116.044 38.0331 116.124 37.8847C116.203 37.7362 116.242 37.5691 116.236 37.4005C116.236 37.0643 116.114 36.8051 115.878 36.6145C115.642 36.424 115.311 36.2639 114.888 36.1214C114.465 35.9789 113.963 35.825 113.386 35.6566C112.788 35.4936 112.208 35.2706 111.654 34.991C111.188 34.7426 110.843 34.4318 110.614 34.0517C110.384 33.6716 110.276 33.2074 110.276 32.6373C110.276 31.8766 110.452 31.2337 110.808 30.7143C111.171 30.1916 111.673 29.7825 112.256 29.5338C112.899 29.2624 113.589 29.1267 114.286 29.1351C114.779 29.1333 115.27 29.191 115.749 29.3071C116.193 29.4186 116.625 29.5728 117.04 29.7677C117.417 29.9417 117.779 30.147 118.123 30.3817L117.177 32.1509Z" fill="#2A5271"/>
</svg>
