<svg width="82" height="82" viewBox="0 0 82 82" fill="none" xmlns="http://www.w3.org/2000/svg">
<path d="M52.603 1.14191C51.2804 0.721379 49.9579 0.420503 48.5749 0.180034L48.2142 0.120209L43.1045 37.4528L48.3948 34.2668V34.0862L52.8435 1.20232L52.603 1.14191Z" fill="#5B77CC"/>
<path d="M56.5698 2.52497L56.1487 2.34491L52.1211 31.9824L57.351 28.8563V28.6763L60.6577 4.50914L60.4173 4.3889C59.2149 3.72732 57.8924 3.06632 56.5698 2.52497Z" fill="#5B77CC"/>
<path d="M68.1141 9.79944C66.9118 8.71733 65.649 7.69505 64.3264 6.79358L63.8455 6.43288L61.0801 26.6323L66.4308 23.4458V23.2657L68.2343 9.91968L68.1141 9.79944Z" fill="#5B77CC"/>
<path d="M17.7349 6.67325L17.4945 6.85331C16.352 7.63512 15.2698 8.47677 14.2481 9.37823L13.9473 9.6187L39.7379 36.912L40.5795 30.78L40.4593 30.6597L17.7349 6.67325Z" fill="#008ED6"/>
<path d="M25.1286 2.58528L24.8882 2.70552C23.5656 3.24628 22.3034 3.90728 21.0406 4.62869L20.6201 4.86916L41.1198 26.512L41.9615 20.4398L41.8412 20.3196L25.1286 2.58528Z" fill="#008ED6"/>
<path d="M43.2848 9.739L34.0268 0L33.8467 0.059825C32.2233 0.360702 30.6602 0.721407 29.1576 1.20235L28.6162 1.38241L42.5634 16.1114L43.4051 9.91964L43.2848 9.739Z" fill="#008ED6"/>
<path d="M81.2781 33.4252C81.0377 31.9823 80.677 30.5999 80.3163 29.2169L80.196 28.736L54.6465 44.0656L60.3573 46.2298L60.4776 46.1102L81.2781 33.6058V33.4252Z" fill="#009966"/>
<path d="M78.9344 25.1894C78.3931 23.9266 77.8523 22.6645 77.1908 21.4616L77.0107 21.1008L44.8477 40.3988L50.6189 42.563L50.7391 42.4428L79.0547 25.4299L78.9344 25.1894Z" fill="#009966"/>
<path d="M81.8198 37.9941L81.7594 37.3929L64.3857 47.7935L70.157 50.0175L70.2772 49.9577L81.7594 43.0439V42.8633C81.8198 42.1425 81.8198 41.4809 81.8198 40.7595C81.94 39.7976 81.8796 38.8961 81.8198 37.9941Z" fill="#009966"/>
<path d="M25.4297 67.3917L25.4895 67.5718L29.5775 80.3765L29.7581 80.4369C31.3212 80.858 32.8842 81.2181 34.4473 81.4592L35.0485 81.5794L28.7963 62.2216L25.4297 67.3917Z" fill="#009966"/>
<path d="M40.3981 44.607L36.9717 49.7771L37.0315 49.9571L47.1916 81.519L47.4919 81.4586C48.8749 81.2181 50.1975 80.9178 51.5201 80.617L51.8808 80.4967L40.3981 44.607Z" fill="#009966"/>
<path d="M31.2607 58.5542L31.3212 58.7349L38.7757 81.9401H39.0162C39.6772 81.9401 40.2783 82 40.9399 82C41.7212 82 42.503 82 43.2842 81.9401H43.7651L34.6273 53.4445L31.2607 58.5542Z" fill="#009966"/>
<path d="M10.5798 45.088L10.4596 45.2082L3.06543 56.5102L3.12525 56.6909C3.72643 58.1935 4.44784 59.6363 5.22965 61.0193L5.52995 61.5601L16.7118 44.607L10.5798 45.088Z" fill="#5B77CC"/>
<path d="M31.4417 43.2845L31.3214 43.4047L13.166 71.0586L13.4065 71.2393C14.4282 72.1408 15.5103 73.0422 16.5924 73.8845L16.8933 74.1243L37.5736 42.6833L31.4417 43.2845Z" fill="#5B77CC"/>
<path d="M21.0405 44.1865L20.9202 44.3067L7.57422 64.6258L7.69445 64.8064C8.5361 65.9484 9.43814 67.0909 10.4 68.173L10.7003 68.5337L27.1126 43.5847L21.0405 44.1865Z" fill="#5B77CC"/>
<path d="M33.0645 34.8076H32.8844L0.0604011 37.7537V38.054C-6.59529e-06 38.8956 0 39.7977 0 40.6393C0 41.1801 -6.59529e-06 41.6616 0.0604011 42.2024V42.5631L37.3331 39.2569L33.0645 34.8076Z" fill="#009966"/>
<path d="M18.577 19.5384H18.3964L5.05034 20.7407L4.99051 20.9208C4.2087 22.3636 3.5477 23.8064 2.94652 25.3091L2.70605 25.8504L22.8451 24.0469L18.577 19.5384Z" fill="#009966"/>
<path d="M25.85 27.2329H25.6699L1.50276 29.3971L1.44235 29.6381C1.08165 31.0205 0.781348 32.403 0.540879 33.8463L0.480469 34.3273L30.0582 31.6821L25.85 27.2329Z" fill="#009966"/>
<path d="M43.6445 43.5853L45.5085 49.4768L45.6885 49.5366L76.529 61.2598L76.6492 60.9589C77.3102 59.7566 77.9114 58.5542 78.5126 57.2316L78.6932 56.8709L43.6445 43.5853Z" fill="#008ED6"/>
<path d="M48.7548 59.4557L48.9349 59.5161L71.5994 68.1126L71.7794 67.9325C72.7413 66.8504 73.5829 65.7079 74.4246 64.5659L74.6651 64.2052L46.8311 53.6246L48.7548 59.4557Z" fill="#008ED6"/>
<path d="M51.9415 69.556L52.1221 69.6158L64.6265 74.3653L64.8066 74.2451C66.1291 73.2832 67.3919 72.261 68.5942 71.1788L69.0148 70.7583L50.0781 63.6041L51.9415 69.556Z" fill="#008ED6"/>
</svg>
