<svg width="14" height="14" viewBox="0 0 14 14" fill="none" xmlns="http://www.w3.org/2000/svg">
<path fill-rule="evenodd" clip-rule="evenodd" d="M7 6.42106C6.67783 6.42106 6.41667 6.68223 6.41667 7.00439C6.41667 7.32656 6.67783 7.58773 7 7.58773C7.32217 7.58773 7.58333 7.32656 7.58333 7.00439C7.58333 6.68223 7.32217 6.42106 7 6.42106ZM5.25 7.00439C5.25 6.0379 6.0335 5.25439 7 5.25439C7.9665 5.25439 8.75 6.0379 8.75 7.00439C8.75 7.97089 7.9665 8.75439 7 8.75439C6.0335 8.75439 5.25 7.97089 5.25 7.00439Z" fill="#9CA3AF"/>
<path fill-rule="evenodd" clip-rule="evenodd" d="M0.816375 6.53333C1.07411 6.34003 1.43974 6.39226 1.63304 6.64999L2.50013 7.80611C3.04604 8.46778 3.73119 9.00095 4.50681 9.36758C5.28623 9.736 6.13761 9.92709 6.99971 9.92709C7.86181 9.92709 8.71319 9.736 9.49261 9.36758C10.2682 9.00095 10.9534 8.46777 11.4993 7.8061L12.3664 6.64999C12.5597 6.39226 12.9253 6.34003 13.183 6.53333C13.4408 6.72663 13.493 7.09226 13.2997 7.34999L12.4247 8.51666C12.4196 8.52353 12.4143 8.53029 12.4088 8.53692C11.7522 9.33633 10.9265 9.98024 9.99118 10.4223C9.05589 10.8645 8.03423 11.0938 6.99971 11.0938C5.96519 11.0938 4.94353 10.8645 4.00824 10.4223C3.07294 9.98024 2.24727 9.33633 1.59062 8.53692C1.58517 8.53029 1.57986 8.52353 1.57471 8.51666L0.699709 7.34999C0.506409 7.09226 0.558643 6.72663 0.816375 6.53333Z" fill="#9CA3AF"/>
<path fill-rule="evenodd" clip-rule="evenodd" d="M6.99971 4.06962C6.13761 4.06962 5.28623 4.26071 4.50681 4.62913C3.73119 4.99576 3.04604 5.52893 2.50013 6.19061L1.63304 7.34672C1.43974 7.60446 1.07411 7.65669 0.816376 7.46339C0.558643 7.27009 0.506409 6.90446 0.699708 6.64672L1.57471 5.48006C1.57986 5.47318 1.58517 5.46643 1.59062 5.45979C2.24727 4.66039 3.07294 4.01647 4.00823 3.57436C4.94353 3.13226 5.96519 2.90295 6.99971 2.90295C8.03423 2.90295 9.05589 3.13226 9.99118 3.57436C10.9265 4.01647 11.7522 4.66039 12.4088 5.45979C12.4143 5.46643 12.4196 5.47318 12.4247 5.48006L13.2997 6.64672C13.493 6.90446 13.4408 7.27009 13.183 7.46339C12.9253 7.65669 12.5597 7.60446 12.3664 7.34672L11.4993 6.1906C10.9534 5.52893 10.2682 4.99576 9.4926 4.62913C8.71319 4.26071 7.86181 4.06962 6.99971 4.06962Z" fill="#9CA3AF"/>
</svg>
