<svg width="58" height="50" viewBox="0 0 58 50" fill="none" xmlns="http://www.w3.org/2000/svg">
<path d="M17.8457 0.5H20.0771C20.5434 0.500095 20.9405 0.664661 21.292 1.01562C21.643 1.36692 21.8076 1.76495 21.8076 2.23145V6.69336C21.8075 7.15961 21.6428 7.55611 21.292 7.90723C20.9405 8.25842 20.5434 8.42373 20.0771 8.42383H17.8457C15.2502 8.42393 13.02 9.34775 11.1836 11.1836C9.34692 13.0203 8.42285 15.2506 8.42285 17.8467V18.9609C8.42285 20.0219 8.7999 20.9401 9.54492 21.6855C10.2904 22.431 11.2082 22.8075 12.2686 22.8076H20.0771C21.8046 22.8077 23.2579 23.4073 24.4639 24.6133C25.6707 25.8203 26.2695 27.2719 26.2695 29V42.3838C26.2695 44.1126 25.6702 45.5645 24.4639 46.7715C23.2572 47.9776 21.8047 48.5771 20.0771 48.5771H6.69238C4.96458 48.5771 3.51124 47.9777 2.30469 46.7715H2.30566C1.09915 45.5645 0.5 44.1127 0.5 42.3838V17.8467L0.504883 17.4072C0.558444 15.2172 1.01405 13.1237 1.87109 11.124C2.78855 8.98319 4.02605 7.13742 5.58203 5.58203C7.13819 4.02594 8.98358 2.7886 11.124 1.87109C13.2572 0.957409 15.4959 0.500057 17.8457 0.5ZM49.0791 0.5H51.3086C51.7749 0.5 52.1726 0.664396 52.5234 1.01465V1.01562C52.8748 1.36725 53.04 1.76519 53.04 2.23145V6.69336C53.0399 7.10109 52.9133 7.45554 52.6465 7.77344L52.5234 7.9082C52.1725 8.2589 51.7751 8.42383 51.3086 8.42383H49.0791C46.4823 8.42383 44.252 9.34764 42.416 11.1836C40.5803 13.0202 39.6553 15.2507 39.6553 17.8467V18.9609C39.6553 20.0213 40.032 20.9391 40.7773 21.6846V21.6855C41.522 22.4315 42.4412 22.8075 43.501 22.8076H51.3086C53.0367 22.8076 54.4892 23.4072 55.6953 24.6133C56.9015 25.8203 57.5001 27.2714 57.5 29V42.3838C57.5 44.1126 56.902 45.5647 55.6953 46.7715H55.6943C54.4884 47.9775 53.0365 48.5771 51.3086 48.5771H37.9238C36.3038 48.5771 34.9254 48.0509 33.7656 46.9912L33.5371 46.7715C32.3309 45.5644 31.7314 44.1125 31.7314 42.3838V17.8467C31.7314 15.497 32.1895 13.2571 33.1035 11.124C34.0206 8.98336 35.2583 7.13744 36.8145 5.58203C38.2735 4.1231 39.9862 2.9445 41.958 2.04688L42.3555 1.87109C44.4894 0.957364 46.7279 0.5 49.0791 0.5Z" fill="white" stroke="#E3E7FF"/>
</svg>
