<svg width="20" height="20" viewBox="0 0 20 20" fill="none" xmlns="http://www.w3.org/2000/svg">
<path d="M9.36032 1.28746C9.62296 0.758848 10.377 0.75885 10.6397 1.28746L12.7847 5.60461C12.8887 5.81394 13.0885 5.95914 13.3198 5.99337L18.0884 6.69931C18.6723 6.78574 18.9054 7.50291 18.4838 7.91605L15.0408 11.2901C14.8738 11.4537 14.7975 11.6887 14.8364 11.9192L15.6386 16.6726C15.7368 17.2546 15.1268 17.6979 14.6036 17.4246L10.3307 15.1927C10.1235 15.0845 9.87649 15.0845 9.6693 15.1927L5.39641 17.4246C4.87322 17.6979 4.26316 17.2546 4.36139 16.6726L5.16361 11.9192C5.20251 11.6887 5.12617 11.4537 4.95923 11.2901L1.51621 7.91605C1.09463 7.50291 1.32765 6.78574 1.91156 6.69931L6.68025 5.99337C6.91147 5.95914 7.11132 5.81394 7.21533 5.60461L9.36032 1.28746Z" fill="#FEA500"/>
</svg>
